<?xml version="1.0" encoding="utf-8"?>
<!-- Generator: Adobe Illustrator 19.1.0, SVG Export Plug-In . SVG Version: 6.00 Build 0)  -->
<svg version="1.1" id="Capa_1" xmlns="http://www.w3.org/2000/svg" xmlns:xlink="http://www.w3.org/1999/xlink" x="0px" y="0px"
	 viewBox="0 0 425.2 325.2" style="enable-background:new 0 0 425.2 325.2;" xml:space="preserve">
<style type="text/css">
	.st0{filter:url(#Adobe_OpacityMaskFilter);}
	.st1{opacity:0.5;mask:url(#SVGID_1_);fill:#00BAEE;}
	.st2{fill:url(#SVGID_2_);}
	.st3{fill:#8BB31D;}
	.st4{fill:url(#SVGID_3_);}
	.st5{fill:url(#SVGID_4_);}
	.st6{fill:#FFFFFF;}
	.st7{fill:#585857;}
	.st8{opacity:0.3;fill:#585857;}
	.st9{filter:url(#Adobe_OpacityMaskFilter_1_);}
	.st10{opacity:0.5;mask:url(#SVGID_5_);fill:#00BAEE;}
	.st11{fill:url(#SVGID_6_);}
	.st12{fill:#9D9D9C;}
	.st13{fill:url(#SVGID_7_);}
	.st14{fill:url(#SVGID_8_);}
	.st15{fill:#878787;}
	.st16{fill:#575756;}
	.st17{opacity:0.3;fill:#575756;}
</style>
<path class="st15" d="M379.2,97.7c-3.2-8.9-9.8-15.5-17.7-17.6L109,31.1c-2.9-0.8-5.9-1.2-8.8-1.2c-6.4,0-12.5,1.9-17.5,5.4
	c-7.4,5.2-11.9,13.3-12.7,23l-2.4,81.7l4.6-2.2l2.4-79.4c0.7-8.2,4.6-15.1,10.8-19.4c4.3-3,9.4-4.6,14.8-4.6c2.6,0,5.2,0.4,8,1.1
	l252.6,49c6.3,1.7,11.6,7.2,14.3,14.7c0.3,0.9,1.2,1.5,2.1,1.5c0.3,0,0.5,0,0.8-0.1C379,100.2,379.6,98.9,379.2,97.7z"/>
<g>
	<g>
		<path class="st16" d="M224.9,165.9c0,3.2-1.1,5.9-3.4,8.1c-2.2,2.2-5,3.3-8.1,3.3c-1.8,0-3.3-0.2-4.5-0.6l1-6.8
			c0.8,0.2,1.5,0.2,2.1,0.2c0.4,0,0.9,0,1.5,0c1.2-0.1,2.2-0.5,3-1.3c0.8-0.8,1.2-1.7,1.2-2.9v-37.3h7.1V165.9z"/>
		<path class="st16" d="M239.2,165.7l-1.8,11.1h-7.6l8.2-48.1h10l8.1,48.1h-7.6l-1.7-11.1H239.2z M243,139.6l-2.7,19h5.4L243,139.6z
			"/>
		<path class="st16" d="M263.3,176.8l-8.6-48.1h7.6l6,37.5l6.1-37.5h7.6l-8.8,48.1H263.3z"/>
		<path class="st16" d="M289.8,165.7l-1.8,11.1h-7.6l8.2-48.1h10l8.1,48.1H299l-1.7-11.1H289.8z M293.6,139.6l-2.7,19h5.4
			L293.6,139.6z"/>
		<path class="st16" d="M311.7,169.5h7.3v7.3h-7.3V169.5z"/>
	</g>
	<g>
		<g>
			<path class="st16" d="M217.1,191.1l9.7,32.5v-32.5h7.3v48.3h-7.8l-10-30.9v30.9h-7.3v-48.3H217.1z"/>
			<path class="st16" d="M240.5,239.4v-48.3h20.7v7.3h-13.4v13.2h9.8v7.3h-9.8v13.2h13.4v7.3H240.5z"/>
			<path class="st16" d="M293.1,239.4h-7.8l-5.6-15.4l-5.6,15.4h-7.8l9.5-24.3l-9.5-24h8.1l5.4,14.9l5.4-14.9h8.1l-9.5,24
				L293.1,239.4z"/>
			<path class="st16" d="M305.9,198.4h-7.7v-7.3h22.7v7.3h-7.7v41h-7.3V198.4z"/>
		</g>
		<path class="st16" d="M340.1,190.7c-4.5,8.2-6.2,15.2-6.2,24.3s1.7,16.2,6.2,24.3h-5.7c-5.3-8.5-7.6-16.8-7.6-24.3
			s2.3-15.9,7.6-24.3H340.1z"/>
		<path class="st16" d="M354.5,190.7c5.3,8.5,7.6,16.8,7.6,24.3s-2.3,15.9-7.6,24.3h-5.7c4.5-8.2,6.2-15.2,6.2-24.3
			s-1.7-16.2-6.2-24.3H354.5z"/>
	</g>
</g>
<path class="st15" d="M245.7,325.2c-0.6,0-1.1-0.2-1.5-0.6c-0.7-0.7-1-1.7-0.6-2.6l20.5-47l-67.4-13.7c-0.6-0.1,8.9,0.5,8.6,0
	c-0.3-0.5-0.5-1.1-0.3-1.7c0.2-1,1.1-1.8,2.2-1.8c0.2,0,0.3,0,0.5,0l60.1,13.2c0.7,0.1,1.2,0.6,1.6,1.2c0.3,0.6,0.3,1.3,0.1,1.9
	l-18.9,43.2l61.8-35.5c0.3-0.2,0.7-0.3,1.1-0.3c0.1,0,0.3,0,0.4,0l36.8,6.8c2.3,0.5,4.6,0.8,7,0.8c5.7,0,11.3-1.7,16.1-4.8
	c6.6-4.3,11-11,12.5-18.7l34-134.1c1.5-8.2-0.4-15.8-5.2-21.7c-5-6-12.4-9.4-20.9-9.4L233,101.1c-10.8,0-21.1,10.5-23.1,23.3
	c-0.2,1.1-1.1,1.9-2.2,1.9c-0.1,0-0.2,0-0.3,0c-0.6-0.1-1.1-0.4-1.5-0.9c-0.4-0.5-0.5-1.1-0.4-1.7c2.3-15.2,14.4-27.2,27.4-27.2
	l161.3-0.4c9.7,0.1,18.6,4.1,24.4,11.1c5.7,6.9,7.9,16,6.1,25.4l-34,134.1c-1.7,9-6.8,16.7-14.4,21.7c-5.5,3.6-12,5.5-18.7,5.5
	c-2.6,0-5.2-0.3-7.7-0.9l-35.9-6.7l-67,38.5C246.5,325.1,246.1,325.2,245.7,325.2z"/>
<path class="st15" d="M373.8,233.7c-0.1,0-0.2,0-0.3,0c-1.1,0-2.1,0.9-2.2,2c-1.4,12.2-10.6,21.8-20.8,21.8c-0.2,0-0.5,0-0.7,0
	l-180.5-0.3c-0.6,0-1.2,0.3-1.7,0.7c-0.4,0.5-0.6,1.1-0.6,1.7l4.1,42.2l-47.5-46c-0.4-0.4-0.9-0.6-1.5-0.6l-24.5-0.8
	c-8.2-0.4-15.7-3.9-21.1-10c-4.1-4.6-6.5-10.3-7-16.3l-4.6-3.4c-0.2,8.4,2.7,16.4,8.2,22.7c6.1,6.9,15,11.1,24.3,11.5l23.6,0.8
	l51.3,49.7c0.4,0.4,1,0.6,1.6,0.6c0.3,0,0.7-0.1,1-0.2c0.8-0.4,1.4-1.3,1.3-2.3l-4.4-45.8l177.9,0.3c0.3,0,0.6,0,0.9,0
	c12.6,0,23.4-11.1,25.1-25.8c0.1-0.6-0.1-1.2-0.5-1.7C374.9,234.1,374.4,233.8,373.8,233.7z"/>
<g>
	<polygon class="st6" points="62.5,180.8 69.4,230.6 78.4,238.7 91.7,240.7 103,239.4 112.6,233.2 117.9,224.6 121.8,204.8 
		127.5,188.1 132.7,176.8 138.1,171.9 145.6,173.2 156.5,169.5 167.1,165.6 170.9,158.6 161,152.7 	"/>
	<path class="st16" d="M143.6,144.1l-42.9,31.6c-1.2,0.9-2.9,0.6-3.8-0.6l-14.3-19.4c-0.9-1.2-0.6-2.9,0.6-3.8l42.9-31.6
		c1.2-0.9,2.9-0.6,3.8,0.6l14.3,19.4C145.1,141.6,144.8,143.3,143.6,144.1z"/>
	
		<ellipse transform="matrix(-0.8494 0.5277 -0.5277 -0.8494 271.4799 235.3052)" class="st6" cx="102.2" cy="156.4" rx="7.5" ry="9.1"/>
	
		<ellipse transform="matrix(-0.8494 0.5277 -0.5277 -0.8494 271.4799 235.3052)" class="st16" cx="102.2" cy="156.4" rx="4.7" ry="5.8"/>
	
		<ellipse transform="matrix(-0.8494 0.5277 -0.5277 -0.8494 308.5164 187.6369)" class="st6" cx="127.5" cy="137.8" rx="7.5" ry="9.1"/>
	
		<ellipse transform="matrix(-0.8494 0.5277 -0.5277 -0.8494 308.5164 187.6369)" class="st16" cx="127.5" cy="137.8" rx="4.7" ry="5.8"/>
	<path class="st16" d="M178,8.3c-3.6-2.1-8.1,0.1-10.5,3c-3,3.7-4.4,8.8-6.2,13.1c-2.8-4.1-2.5-9.5-2.8-14.2
		c-0.3-4.8-0.8-9.4-6.3-10.1c-5.7-0.7-6.1,5.3-6.6,9.7c-0.5,5.5,0.7,10.7,1,16.2c-4.3-4.2-5-10.3-7.3-15.5c-1-2.2-2.4-3.4-4.9-3
		c-2,0.3-3.9,1.4-5,3.1c-2.7,4.4,0.1,12,1.5,16.5c1.8,5.6,4.5,10.5,7.8,15.3c-3.8,0.6-8.4,0.7-11.6,3.1c-2.6,2-3.4,5.9-1.2,8.6
		c2.5,3,7.2,0.6,10.4,0.9c4.3,0.4,7,4.1,10.4,6.2c1.4,0.8,2.8,1,4.2,1.7c1.7,0.8,2.5,2.7,2.9,4.5c1,4.1,0.8,8.7-0.2,12.8
		c-0.7,2.9-3.5,5-6.7,9.3c-3.6,4.7-6,7.5-8.5,8.8c1.1-3.2,1.7-6.7,1.7-10.3c0-18.1-14.7-32.9-32.9-32.9c-6.2,0-12,1.7-16.9,4.7
		c-5.7-3.8-20.6-15-25.2-30.8c-3-10.4-8.8-4.9-8.8-4.9s-31.1,19.7-36,70.1c0,0-0.7,23.6,3.1,45.9c-0.1,0.4-0.2,0.7-0.2,1.1
		c0,0-1,3.7-4.9,10.6c-3.8,6.9-15.6,27.8-17,30.6c-1.4,2.8-3.7,7.2,4.3,13.1c8,5.9,11,4.3,14.4,8.3c0,0,9.1,15.5,16.1,15.4
		c0,0-19.2,8.6-11.3,17.1c0,0,7,6.7,28-5.6c0,0,3.6-2.1,5.9-6.2c3.1,3.5,6.4,6.9,9.9,10c0.2,0.1,12,9.5,25.7,9.5
		c7,0,14.5-2.4,21.1-9.8c0.1-0.1,0.2-0.2,0.2-0.3c0.2-0.3,5.6-8.3,7.8-22.2c2.3-14.5,5.4-25.9,13-34.1c27-4,33.3-12.6,34.3-14.2
		c15.1-21.5-10-44.5-10.2-44.7c-0.4-0.4-7.7-7.3-15.9-13.5c1.9-4,8.5-13.7,9.9-15.5c1.6-2.1,2.4-4.5,3-7c1.2-5.3,1.2-10.8,2.2-16.1
		c0.8-4.4,3-6.7,6.8-9c9-5.4,6.9-15.7,6.5-24.5c-0.2-5,1.1-9.2,3.7-13.5C178.6,16.5,182,10.6,178,8.3z M135.4,87.7
		c0,15.4-12.5,28-28,28s-28-12.5-28-28s12.5-28,28-28S135.4,72.2,135.4,87.7z M38.9,197.5c0,0-10.2,1.3-14.2-0.8
		c-4-2.1-16.3-7.6-16.3-7.6s-3.6-2.6-0.8-7.7c2.9-5.1,12.6-22.9,12.6-22.9s1.8-2.2,4.1-3.1c1.6,6.4,6.5,23.4,16.3,41.7
		C40.1,197.2,39.5,197.3,38.9,197.5z M166.9,160.3c0,0.1-0.1,0.2-0.1,0.2c0,0.1-4,6.3-22.7,10.4l3.4-2.9c1-0.9,1.2-2.4,0.3-3.5
		c-0.9-1-2.4-1.2-3.5-0.3l-10.5,8.8c-0.1,0.1-0.1,0.1-0.2,0.2c-9.8,10.1-12.8,24.6-14.8,37.3c-1.9,11.8-6.2,19-6.9,20.1
		c-16.6,18.1-39.1,0.4-39.9-0.3c-4.1-3.6-7.8-7.5-11.3-11.7c0.5-3.5-0.3-7.9-3.5-12.9c0,0-4.4-5.7-10.6-7.8
		C38,182.2,32.8,167,30.3,158.5c1.7,2,4.3,4.5,7,5.6c4.6,1.8,5.9-8,4.4-15.2c9-2.1,37.8-10,56.4-29.7c3,0.9,6.1,1.4,9.4,1.4
		c12,0,22.5-6.5,28.2-16.1c10,6.5,21.6,17.4,21.7,17.6C157.7,122.2,179.7,142.2,166.9,160.3z"/>
	<path class="st6" d="M78.2,94.5c-4.9,6.9-9,8.9-9,8.9c-12.2,9.3-21-7.2-21.1-17.1c-0.2-13.2,15.9-20,15.9-20s13.9-7.2,18.5-12.7
		l-2.6-2.6c0,0,1.4-7.8,5.8-3.2c0,0,6.7,5.9,8,12.5"/>
	<path class="st16" d="M62.1,107.3c-1.8,0-3.3-0.5-4.5-1c-6.5-3.2-10.6-12.8-10.8-19.9c-0.2-13.8,15.9-20.8,16.6-21
		c0,0,12.4-6.5,17.4-11.6l-1.8-1.8c-0.3-0.3-0.4-0.7-0.3-1c0.1-0.8,1-4.7,3.6-5.5c1.4-0.4,2.8,0.2,4.2,1.7c0.2,0.2,6.9,6.1,8.3,13.1
		c0.1,0.6-0.3,1.2-0.9,1.4c-0.6,0.1-1.2-0.3-1.4-0.9c-1.2-6.2-7.5-11.8-7.6-11.8c-0.8-0.9-1.5-1.3-2-1.2c-0.7,0.2-1.5,1.8-1.8,3.1
		l2.2,2.2c0.4,0.4,0.5,1.1,0.1,1.6c-4.7,5.6-18.3,12.7-18.9,13c-0.2,0.1-15.5,6.7-15.3,18.9c0.1,6.4,3.9,15.2,9.4,17.8
		c3.1,1.5,6.4,0.9,9.8-1.7c0.1,0,0.1-0.1,0.2-0.1c0,0,3.9-2,8.6-8.5c0.4-0.5,1.1-0.6,1.6-0.3c0.5,0.4,0.6,1.1,0.3,1.6
		c-4.6,6.5-8.6,8.8-9.3,9.2C66.9,106.6,64.3,107.3,62.1,107.3z"/>
	<path class="st6" d="M83.4,164.1c-4,0-8.5-0.7-13.3-2.4c-11.5-4.3-18.9-17.1-25.4-28.5c-3.6-6.3-7-12.2-10.5-15.6
		c-6.3-6-14.4-7.6-19.6-6.5c-1.7,0.4-4.8,1.4-5.9,4.2c-2,4.9,8.3,10.6,12.1,12.2c1.2,0.5,1.7,1.9,1.2,3c-0.5,1.2-1.9,1.7-3,1.2
		C17,131,0.4,123.6,4.4,113.6c1.4-3.5,4.7-6,9.2-7c7.7-1.7,17.3,1.4,23.8,7.7c4,3.8,7.6,10.1,11.3,16.6c6.1,10.7,13,22.7,22.9,26.4
		c16.2,6,28-2.3,28.5-2.7c1-0.7,2.5-0.5,3.2,0.5c0.7,1,0.5,2.5-0.5,3.2C102.5,158.7,94.8,164.1,83.4,164.1z"/>
	<path class="st15" d="M83.4,165c-4.6,0-9.1-0.8-13.6-2.5c-11.8-4.4-19.3-17.4-25.8-28.9c-3.6-6.2-6.9-12.1-10.3-15.4
		c-6-5.8-13.8-7.3-18.8-6.3c-1.6,0.3-4.3,1.3-5.3,3.7c-1.6,3.9,7.3,9.3,11.6,11.1c1.6,0.7,2.4,2.6,1.7,4.2c-0.7,1.6-2.6,2.4-4.2,1.7
		c-2-0.9-19.3-8.6-15-19.3c1.5-3.8,5-6.5,9.9-7.5c8-1.7,17.8,1.5,24.5,7.9c4.1,3.9,7.7,10.2,11.5,16.8c6,10.5,12.8,22.5,22.5,26
		c15.8,5.8,27.2-2.2,27.7-2.6c1.4-1,3.4-0.7,4.4,0.7c1,1.4,0.7,3.4-0.7,4.4C103.1,159.3,95.1,165,83.4,165L83.4,165
		C83.4,165,83.4,165,83.4,165z M17.9,109.9c5.2,0,11.6,2,16.8,7.1c3.6,3.5,7,9.4,10.6,15.8c6.4,11.2,13.7,23.9,24.9,28.1
		c4.3,1.6,8.7,2.4,13,2.4c0,0,0,0,0,0l0,0c11.2,0,18.7-5.3,19-5.5c0.6-0.5,0.8-1.4,0.3-2c-0.5-0.6-1.4-0.8-2-0.3
		c-0.5,0.4-12.7,8.9-29.3,2.8c-10.2-3.8-17.2-16-23.4-26.8c-3.7-6.5-7.3-12.7-11.2-16.5c-6.3-6.1-15.5-9-23-7.4
		c-4.2,0.9-7.3,3.2-8.6,6.5c-3.7,9.2,12.3,16.3,14.1,17.1c0.7,0.3,1.6,0,1.9-0.8c0.3-0.7,0-1.6-0.8-1.9c-4.2-1.8-14.8-7.8-12.5-13.4
		c1.3-3.2,4.6-4.3,6.5-4.7C15.5,110,16.7,109.9,17.9,109.9z"/>
	<path class="st6" d="M113.4,62.2c2,5.2,6.4,10.8,11.1,16.8c7.5,9.7,16.1,20.7,15.7,31.3c-0.7,17.2-12.9,25-13.4,25.3
		c-1.1,0.7-1.4,2.1-0.7,3.2s2.1,1.4,3.2,0.8c0.4-0.3,8.4-5.3,12.7-15.9c1.5-3.7,2.6-8.1,2.8-13.3c0.5-12.3-8.6-24-16.6-34.3
		c-4.4-5.7-8.6-11.1-10.4-15.7"/>
	<path class="st15" d="M128,140.8c-1.1,0-2.1-0.5-2.7-1.5c-0.9-1.5-0.5-3.5,1-4.4c0.5-0.3,12.3-7.8,13-24.6
		c0.4-10.3-8-21.1-15.5-30.7c-4.7-6-9.1-11.7-11.2-17l1.6-0.6c2,5.1,6.3,10.7,10.9,16.6c7.6,9.8,16.2,21,15.8,31.9
		c-0.7,17.7-13.3,25.7-13.8,26c-0.7,0.4-0.9,1.3-0.5,2s1.3,0.9,2,0.5c0.3-0.2,8.1-5.1,12.4-15.4c1.7-4,2.6-8.4,2.8-13
		c0.5-12-8.5-23.5-16.4-33.7c-4.5-5.8-8.7-11.2-10.5-15.9l1.6-0.6c1.7,4.4,5.9,9.8,10.3,15.4c8.1,10.5,17.3,22.3,16.8,34.9
		c-0.2,4.8-1.2,9.3-2.9,13.6c-4.5,10.9-12.7,16-13.1,16.3C129.1,140.6,128.5,140.8,128,140.8z"/>
	<path class="st16" d="M17.4,150.2c1.6,3.9,3.8,8.1,7,11c3.5,3.2,12.8,4.2,17.2,2.4c0.5-0.2,0.9-2.8,1.3-3.1
		c3.8-3.3,1.4-10.7-2.7-20.7c-3.9-9.7-8.1-16.6-13-16.8c-0.7,0-1.4,0.1-2,0.3C14.4,127.7,13.5,140.5,17.4,150.2z"/>
	<path class="st6" d="M30,129.7c1.4,1.3,2.6,2.8,3.7,4.6c1,1.7,2,3.4,2.8,5.1c-2.7,1.9-5.3,4.1-7.5,6.5c-1.5-3.1-3.4-6.2-6.2-8.2
		C24.1,134.2,26.7,131.4,30,129.7z"/>
	<path class="st6" d="M23.6,126.1c1.3,0.4,2.5,0.9,3.6,1.5c-3.4,1.9-6.1,4.9-7.4,8.6c-0.6-0.3-1.3-0.5-1.9-0.6c-0.1,0-0.3,0-0.4,0
		C18.2,131.7,20.2,128.3,23.6,126.1z"/>
	
		<ellipse transform="matrix(-0.9267 0.3758 -0.3758 -0.9267 98.786 276.8405)" class="st6" cx="22.4" cy="148.1" rx="4.7" ry="10.3"/>
	<path class="st6" d="M43.7,152.9c-0.3-5.2-2-9.8-4.3-14.4c-1.8-3.7-4.1-7.3-7-10.3c-2.1-2.2-4.5-3.9-7.2-4.9c0,0,0,0,0.1,0
		c5-2,12.8,5.3,17.3,16.4c4.5,11.1,5.3,21.6,0.2,23.6c-0.1,0-1.4,0.3-1.5,0.4C43.1,160.5,43.9,156.8,43.7,152.9z"/>
	<path class="st16" d="M19.8,159.5l-3.3-4.4l4.8-9.1c0,0,1.1-1.3,2.6,0.5c1.2,1.3,1.1,3.7,1.1,3.7L19.8,159.5z"/>
	<path class="st7" d="M23.9,146.5c1.7,1.8,1.1,3.7,1.1,3.7"/>
	<circle class="st16" cx="107.5" cy="87.6" r="32.9"/>
	<circle class="st6" cx="107.5" cy="87.6" r="28"/>
	<rect x="60" y="54.5" transform="matrix(0.9905 0.1375 -0.1375 0.9905 11.7681 -8.2723)" class="st17" width="11.6" height="53"/>
	<rect x="73.5" y="51.6" transform="matrix(0.9905 0.1377 -0.1377 0.9905 11.4725 -9.5315)" class="st17" width="2.3" height="53"/>
</g>
</svg>
